<svg width="20" height="20" viewBox="0 0 20 20" fill="none" xmlns="http://www.w3.org/2000/svg">
<path fill-rule="evenodd" clip-rule="evenodd" d="M0 3.91329C0 1.75218 1.75194 0.000244141 3.91305 0.000244141H11.7392C13.9002 0.000244141 15.6522 1.75218 15.6522 3.91329V4.42021C18.1198 4.8342 20 6.98026 20 9.56548V14.7829C20 17.6643 17.6642 20.0003 14.7826 20.0003H5.2174C2.33591 20.0003 0 17.6643 0 14.7829V5.65243V3.91329ZM13.0435 3.91329V4.34808H2.6087V3.91329C2.6087 3.19293 3.19268 2.60894 3.91305 2.60894H11.7392C12.4596 2.60894 13.0435 3.19293 13.0435 3.91329ZM2.6087 14.7829V6.95678H14.3479H14.7826C16.2234 6.95678 17.3913 8.12473 17.3913 9.56548V14.7829C17.3913 16.2237 16.2234 17.3916 14.7826 17.3916H5.2174C3.77665 17.3916 2.6087 16.2237 2.6087 14.7829ZM12.1739 10.8698C11.4535 10.8698 10.8696 11.4538 10.8696 12.1742C10.8696 12.8946 11.4535 13.4785 12.1739 13.4785H14.3479C15.0683 13.4785 15.6522 12.8946 15.6522 12.1742C15.6522 11.4538 15.0683 10.8698 14.3479 10.8698H12.1739Z" fill="white"/>
</svg>
